<svg width="80" height="80" viewBox="0 0 80 80" xmlns="http://www.w3.org/2000/svg"><title>project-simplepin</title><path d="M36.656 23.742c-.842.937-1.9 1.855-3.125 2.686l8.007 13.868c1.61-1.078 2.95-2.297 3.936-3.525l-8.817-13.028zm1.156-1.504l8.69 12.522c2.88-.445 5.144.04 6.01 1.54 1.367 2.37-1.203 6.497-5.89 9.88l6.07 16.193c.07.186.024.213-.102.06L41.6 49.078c-5.273 2.367-10.133 2.528-11.5.16-.866-1.5-.156-3.703 1.67-5.975l-6.5-13.786c-1.966.088-3.514-.442-4.193-1.62-1.39-2.408 1.383-6.614 6.197-9.393 4.814-2.78 9.844-3.08 11.234-.67.68 1.177.365 2.782-.696 4.44zm-7.3 1.837c3.095-1.787 5.12-4.072 4.524-5.104-.596-1.032-3.588-.42-6.683 1.366-3.094 1.787-5.12 4.072-4.523 5.105.596 1.033 3.588.422 6.682-1.365z" fill="#FFF" fill-rule="evenodd"/></svg>