<svg width="80" height="80" viewBox="0 0 80 80" xmlns="http://www.w3.org/2000/svg" xmlns:xlink="http://www.w3.org/1999/xlink"><title>project-ampler</title><defs><path id="a" d="M0 .05h48V58H0"/></defs><g fill="none" fill-rule="evenodd"><g transform="translate(16 11)"><mask id="b" fill="#fff"><use xlink:href="#a"/></mask><path d="M24.4 55.12l20.8-12.008a.8.8 0 0 0 .4-.693V15.63a.8.8 0 0 0-.4-.692L24.4 2.928a.8.8 0 0 0-.8 0L2.8 14.94a.798.798 0 0 0-.4.692v26.79a.8.8 0 0 0 .4.692l20.8 12.01a.8.8 0 0 0 .8 0m23.2-10.624L24.4 57.892a.8.8 0 0 1-.8 0L.4 44.498a.8.8 0 0 1-.4-.693v-29.56a.8.8 0 0 1 .4-.693L23.6.157a.8.8 0 0 1 .8 0l23.2 13.395a.8.8 0 0 1 .4.693v29.56a.8.8 0 0 1-.4.693" fill="#FFF" mask="url(#b)"/></g><path d="M30.404 57.113v-1.536a.534.534 0 0 0-.266-.46l-6.668-3.854a.537.537 0 0 1-.266-.462v-9.04a.533.533 0 0 0-.533-.534h-1.333a.533.533 0 0 0-.533.533v10.425c0 .19.102.367.267.462l8.534 4.928c.356.205.8-.05.8-.462M39.737 16.625l-6.667 3.85a.532.532 0 0 0-.266.46v17.356c0 .297.238.536.533.536h1.32c.293 0 .532-.24.532-.534V22.33c0-.19.1-.366.266-.46l2.748-1.588a.4.4 0 0 1 .6.346v14.71c0 .296.238.534.533.534h1.333c.295 0 .534-.238.534-.532V20.63a.4.4 0 0 1 .6-.344l2.734 1.582c.164.096.266.272.266.463v15.962c0 .294.238.534.533.534h1.333c.295 0 .534-.24.534-.534V20.936a.533.533 0 0 0-.267-.463l-6.667-3.85a.534.534 0 0 0-.533.002M23.204 32.937V29.25c0-.19.102-.367.267-.462l3.934-2.27a.4.4 0 0 1 .6.345v6.074c0 .295-.24.533-.533.533h-3.733a.533.533 0 0 1-.533-.533m-2.4-5.073v10.428c0 .294.24.533.533.533h1.334c.295 0 .534-.24.534-.533v-1.888c0-.295.24-.534.533-.534h3.734c.295 0 .534.24.534.534v1.888c0 .294.24.533.533.533h1.334c.295 0 .534-.24.534-.533V22.938a.533.533 0 0 0-.8-.462l-8.533 4.926a.535.535 0 0 0-.266.462M52.004 32.937v-6.073a.4.4 0 0 1 .6-.347l3.933 2.27c.165.096.267.272.267.463v3.687c0 .295-.24.533-.533.533h-3.733a.533.533 0 0 1-.533-.533m6.933-5.533l-8.533-4.928a.533.533 0 0 0-.8.462v15.354c0 .294.24.533.533.533h1.334c.295 0 .534-.24.534-.533v-1.888c0-.295.24-.534.533-.534h6.134c.295 0 .534-.24.534-.533v-7.47a.533.533 0 0 0-.267-.463M47.204 43.092V41.76a.534.534 0 0 0-.533-.535H33.338a.534.534 0 0 0-.533.534v17.354c0 .19.102.367.267.462l6.667 3.85c.165.094.37.094.534 0l6.667-3.85a.533.533 0 0 0 .267-.462v-1.536a.534.534 0 0 0-.8-.462l-6.133 3.538a.533.533 0 0 1-.533 0L35.47 58.18a.532.532 0 0 1-.266-.46v-4.786c0-.295.24-.534.533-.534h8.534c.295 0 .534-.24.534-.533v-1.334a.534.534 0 0 0-.533-.534h-8.533a.533.533 0 0 1-.533-.533v-5.31c0-.296.24-.535.533-.535H46.67a.533.533 0 0 0 .534-.533M56.537 48.495l-3.934 2.27a.4.4 0 0 1-.6-.345v-6.262c0-.294.24-.533.534-.533h3.733c.295 0 .534.24.534.533v3.875c0 .19-.102.367-.267.462zm-6.4-7.27a.533.533 0 0 0-.533.533v15.356c0 .41.443.667.8.462l1.332-.767a.533.533 0 0 0 .268-.463v-2.155c0-.19.1-.367.266-.462l1.867-1.078a.534.534 0 0 1 .533 0l1.867 1.078a.533.533 0 0 0 .534 0l1.334-.773a.533.533 0 0 0 0-.924l-1-.574a.4.4 0 0 1 0-.695l1.533-.884a.533.533 0 0 0 .267-.46v-7.662a.534.534 0 0 0-.534-.533h-8.533z" fill="#FFF"/></g></svg>