<?xml version="1.0" encoding="UTF-8"?>
<svg width="80px" height="80px" viewBox="0 0 80 80" version="1.1" xmlns="http://www.w3.org/2000/svg" xmlns:xlink="http://www.w3.org/1999/xlink">
    <!-- Generator: Sketch 49.3 (51167) - http://www.bohemiancoding.com/sketch -->
    <title>project-resultat</title>
    <desc>Created with Sketch.</desc>
    <defs></defs>
    <g id="project-resultat" stroke="none" stroke-width="1" fill="none" fill-rule="evenodd">
        <path d="M44.16,50.32 L33.744,40.144 C31.344,41.44 29.376,43.552 29.376,46.432 C29.376,50.56 33.072,53.344 37.392,53.344 C40.224,53.344 42.384,52.336 44.16,50.32 Z M36.48,26.128 C33.744,26.128 32.112,27.76 32.112,30.4 C32.112,31.504 32.688,32.56 33.504,33.52 C33.888,34 34.368,34.432 34.848,34.864 C35.28,35.2 35.712,35.536 36.096,35.872 C38.544,34.912 40.848,33.424 40.848,30.976 C40.848,28.336 39.408,26.128 36.48,26.128 Z M55.632,54.64 L52.128,58 L47.328,53.344 C44.496,56.272 41.712,57.808 37.248,57.808 C30.672,57.808 24,54.112 24,47.152 C24,42.448 26.976,39.184 30.864,37.264 C28.896,35.44 27.168,33.424 27.168,30.4 C27.168,25.024 31.296,22 36.48,22 C41.76,22 45.792,25.648 45.792,30.496 C45.792,34.864 42.672,37.312 38.976,38.8 L46.896,46.288 C47.424,45.28 47.904,44.224 48.432,42.688 L52.848,44.176 C52.272,46.192 51.36,48.064 50.352,49.504 L55.632,54.64 Z" id="&amp;" fill="#FFFFFF"></path>
    </g>
</svg>