<?xml version="1.0" encoding="UTF-8"?>
<svg width="80px" height="80px" viewBox="0 0 80 80" version="1.1" xmlns="http://www.w3.org/2000/svg" xmlns:xlink="http://www.w3.org/1999/xlink">
    <!-- Generator: Sketch 49.3 (51167) - http://www.bohemiancoding.com/sketch -->
    <title>project-royalblue</title>
    <desc>Created with Sketch.</desc>
    <defs></defs>
    <g id="project-royalblue" stroke="none" stroke-width="1" fill="none" fill-rule="evenodd">
        <path d="M31.7617188,40.2304688 C32.3346383,40.3476568 32.8326802,40.6178364 33.2558594,41.0410156 C33.6790386,41.4641948 34.1966115,42.2877543 34.8085938,43.5117188 L40.0820312,54 L33.7539062,54 L30.2382813,46.6367188 C30.1341141,46.4283844 29.9973967,46.1419289 29.828125,45.7773438 C28.799474,43.5768119 27.5885486,42.4765625 26.1953125,42.4765625 L24.359375,42.4765625 L24.359375,54 L18.5976562,54 L18.5976562,24.8398438 L26.9179688,24.8398438 C30.6679875,24.8398438 33.3600179,25.5038996 34.9941406,26.8320312 C36.6282634,28.1601629 37.4453125,30.3215996 37.4453125,33.3164062 C37.4453125,35.3216246 36.9570361,36.9166607 35.9804688,38.1015625 C35.0039014,39.2864643 33.5976654,39.9960926 31.7617188,40.2304688 Z M24.359375,29.6835938 L24.359375,37.6328125 L27.0742188,37.6328125 C28.6497475,37.6328125 29.7792935,37.3235708 30.4628906,36.7050781 C31.1464878,36.0865854 31.4882812,35.0677154 31.4882812,33.6484375 C31.4882812,32.2291596 31.149743,31.2135447 30.4726562,30.6015625 C29.7955695,29.9895803 28.6627684,29.6835938 27.0742188,29.6835938 L24.359375,29.6835938 Z M48.0898438,40.7578125 L48.0898438,49.390625 L51.9179688,49.390625 C53.7539154,49.390625 55.0397099,49.0781281 55.7753906,48.453125 C56.5110714,47.8281219 56.8789062,46.7408932 56.8789062,45.1914062 C56.8789062,43.6158775 56.4947955,42.4830764 55.7265625,41.7929688 C54.9583295,41.1028611 53.6888109,40.7578125 51.9179688,40.7578125 L48.0898438,40.7578125 Z M48.0898438,29.390625 L48.0898438,36.1679688 L51.9179688,36.1679688 C53.3763094,36.1679688 54.4147104,35.9075547 55.0332031,35.3867188 C55.6516958,34.8658828 55.9609375,34.0065164 55.9609375,32.8085938 C55.9609375,31.6106711 55.6451854,30.7415392 55.0136719,30.2011719 C54.3821583,29.6608046 53.3502676,29.390625 51.9179688,29.390625 L48.0898438,29.390625 Z M42.5234375,24.8007812 L51.9179688,24.8007812 C55.1601725,24.8007812 57.5982991,25.4160095 59.2324219,26.6464844 C60.8665446,27.8769593 61.6835938,29.7161336 61.6835938,32.1640625 C61.6835938,34.0390719 61.2018277,35.503901 60.2382812,36.5585938 C59.2747348,37.6132865 57.8619885,38.2252596 56,38.3945312 C58.2265736,38.6158865 59.9029892,39.364577 61.0292969,40.640625 C62.1556046,41.916673 62.71875,43.7005094 62.71875,45.9921875 C62.71875,48.8047016 61.8724043,50.8424416 60.1796875,52.1054688 C58.4869707,53.3684959 55.733092,54 51.9179688,54 L42.5234375,54 L42.5234375,24.8007812 Z" id="RB" fill="#FFFFFF"></path>
    </g>
</svg>